<?xml version="1.0" standalone="no"?>
<!DOCTYPE svg PUBLIC "-//W3C//DTD SVG 20010904//EN"
 "http://www.w3.org/TR/2001/REC-SVG-20010904/DTD/svg10.dtd">
<svg version="1.0" xmlns="http://www.w3.org/2000/svg"
 width="518.000000pt" height="518.000000pt" viewBox="0 0 518.000000 518.000000"
 preserveAspectRatio="xMidYMid meet">

<g transform="translate(0.000000,518.000000) scale(0.100000,-0.100000)"
fill="#000000" stroke="none">
<path d="M2450 4691 c-221 -26 -399 -79 -590 -176 -441 -223 -808 -680 -965
-1200 -14 -49 -33 -111 -40 -136 -8 -25 -26 -116 -40 -203 -22 -136 -25 -188
-25 -389 0 -201 4 -253 25 -386 14 -85 32 -175 40 -200 7 -26 25 -86 40 -136
29 -99 78 -222 127 -320 166 -331 395 -598 678 -787 128 -86 266 -151 430
-204 287 -92 633 -92 920 0 306 98 557 261 780 507 130 143 235 299 328 484
49 98 98 221 127 320 15 50 33 110 40 136 8 25 26 115 40 200 21 133 25 185
25 386 0 201 -3 253 -25 389 -14 87 -32 178 -40 203 -7 25 -26 87 -40 136 -89
294 -250 578 -455 804 -266 293 -593 481 -958 551 -116 22 -323 32 -422 21z
m327 -157 c54 -8 114 -19 133 -24 78 -19 185 -52 195 -60 5 -4 29 -14 53 -21
23 -6 42 -16 42 -21 0 -4 6 -8 13 -8 6 0 50 -23 96 -50 46 -28 86 -50 88 -50
3 0 74 -54 157 -120 35 -28 165 -161 203 -207 21 -26 45 -55 53 -64 51 -59
163 -238 211 -339 55 -113 69 -147 69 -161 0 -8 5 -20 12 -27 9 -9 9 -12 0
-12 -6 0 -17 20 -23 45 -6 25 -15 45 -19 45 -4 0 -12 19 -19 41 -7 23 -17 47
-22 53 -5 6 -25 43 -45 81 -20 39 -45 81 -55 94 -11 13 -19 28 -19 33 0 5 -4
14 -10 21 -5 7 -38 50 -72 97 -62 85 -206 235 -286 300 -24 19 -54 43 -65 53
-38 31 -151 102 -185 116 -17 7 -32 17 -32 22 0 5 -5 9 -10 9 -6 0 -40 14 -75
30 -35 17 -70 30 -77 30 -7 0 -25 6 -40 14 -15 8 -53 20 -85 26 -32 7 -63 16
-68 20 -15 12 -199 30 -305 30 -106 0 -290 -18 -305 -30 -5 -4 -36 -13 -68
-20 -32 -6 -70 -18 -85 -26 -15 -8 -33 -14 -40 -14 -7 0 -42 -13 -77 -30 -35
-16 -69 -30 -75 -30 -5 0 -10 -4 -10 -9 0 -5 -15 -15 -32 -22 -35 -14 -134
-77 -183 -116 -16 -13 -48 -38 -70 -56 -77 -61 -221 -213 -283 -297 -34 -47
-66 -89 -70 -95 -4 -5 -13 -22 -19 -37 -7 -16 -17 -28 -23 -28 -10 0 1 22 50
91 14 20 32 47 40 59 8 13 22 31 30 40 8 9 33 38 55 65 38 47 161 172 201 205
63 50 154 120 157 120 2 0 42 22 88 50 46 27 90 50 97 50 6 0 12 4 12 8 0 5
19 15 43 21 23 7 47 17 52 21 11 9 129 45 200 61 172 40 347 48 502 23z m78
-57 c188 -35 397 -126 570 -249 148 -104 334 -302 446 -473 138 -209 252 -492
293 -726 8 -46 21 -111 27 -144 17 -81 17 -509 0 -590 -6 -33 -19 -98 -27
-144 -41 -234 -155 -517 -293 -726 -112 -171 -298 -369 -446 -473 -257 -182
-534 -272 -835 -272 -301 0 -578 90 -835 272 -187 132 -384 356 -512 583 -192
338 -285 735 -269 1148 4 87 11 181 17 210 5 29 17 90 25 136 41 234 155 517
293 726 112 171 298 369 446 473 332 234 714 321 1100 249z m-1626 -801 c-7
-14 -16 -26 -20 -26 -5 0 0 13 9 29 20 36 27 34 11 -3z m-46 -84 c-9 -23 -19
-42 -23 -42 -4 0 -13 -20 -20 -45 -7 -25 -16 -45 -20 -45 -4 0 -13 -20 -19
-45 -6 -25 -17 -45 -23 -45 -9 0 -9 3 0 12 7 7 12 19 12 27 0 8 9 35 21 60 67
145 110 218 72 123z m-103 -252 c0 -5 -4 -10 -10 -10 -5 0 -10 5 -10 10 0 6 5
10 10 10 6 0 10 -4 10 -10z m3040 0 c0 -5 -5 -10 -11 -10 -5 0 -7 5 -4 10 3 6
8 10 11 10 2 0 4 -4 4 -10z m-3066 -59 c-4 -17 -9 -30 -11 -27 -3 2 -2 19 2
36 9 41 17 33 9 -9z m3084 -16 c0 -16 -2 -15 -8 5 -11 34 -11 60 0 35 5 -11 8
-29 8 -40z m-3106 -58 c-6 -12 -16 -42 -21 -67 l-10 -45 5 49 c7 57 22 102 31
92 3 -3 1 -16 -5 -29z m3138 -32 c6 -31 10 -61 7 -68 -2 -6 -7 12 -11 40 -5
29 -12 55 -17 59 -5 3 -9 12 -9 20 0 33 19 0 30 -51z m-3179 -139 c-5 -11 -12
-30 -14 -41 -3 -11 -3 2 0 29 5 55 15 81 21 52 2 -10 -1 -28 -7 -40z m3213
-18 c2 -24 1 -32 -1 -18 -3 14 -9 29 -14 35 -5 5 -9 20 -9 35 1 41 19 0 24
-52z m-3237 -120 c-2 -13 -4 -3 -4 22 0 25 2 35 4 23 2 -13 2 -33 0 -45z
m3250 0 c-2 -13 -4 -3 -4 22 0 25 2 35 4 23 2 -13 2 -33 0 -45z m-3260 -110
c-2 -18 -4 -6 -4 27 0 33 2 48 4 33 2 -15 2 -42 0 -60z m3276 25 c-5 -67 -13
-67 -13 1 0 31 4 55 8 52 5 -3 7 -26 5 -53z m-3284 -128 c1 -32 -3 -55 -9 -55
-11 0 -14 68 -4 94 9 24 11 20 13 -39z m3301 -12 c0 -24 -5 -43 -10 -43 -6 0
-9 23 -8 55 3 62 18 52 18 -12z m-3301 -185 c-1 -42 -4 -56 -10 -43 -11 29
-11 105 1 105 6 0 9 -26 9 -62z m3300 20 c-1 -72 -15 -88 -17 -20 -1 35 3 62
8 62 6 0 10 -19 9 -42z m-3286 -193 l5 -100 -11 75 c-10 63 -11 139 -2 128 1
-2 5 -48 8 -103z m3268 49 c-1 -27 -5 -71 -10 -99 l-10 -50 4 64 c3 35 5 82 5
104 0 22 2 38 5 35 3 -3 6 -27 6 -54z m-3242 -219 c5 -5 14 -45 21 -88 7 -43
17 -80 21 -83 12 -7 11 -34 0 -34 -5 0 -14 30 -21 68 -7 37 -16 72 -20 77 -5
6 -10 35 -13 65 -2 30 -2 44 0 30 3 -14 8 -29 12 -35z m3202 -48 c-11 -45 -23
-99 -27 -119 -3 -21 -10 -38 -15 -38 -11 0 -12 27 0 34 4 3 14 40 21 83 7 43
17 82 21 88 5 5 10 23 10 40 1 18 3 23 6 12 3 -10 -4 -55 -16 -100z m-3118
-248 c6 -4 5 -9 -1 -13 -11 -6 -33 54 -31 84 1 8 6 -3 11 -25 6 -22 15 -43 21
-46z m3057 21 c-6 -24 -15 -38 -22 -34 -7 4 -7 9 0 13 6 3 14 24 18 46 4 22 9
35 11 28 2 -6 -1 -30 -7 -53z m-3029 -105 c6 -25 15 -45 19 -45 4 0 12 -19 19
-41 7 -23 17 -47 22 -53 5 -6 25 -42 45 -81 20 -38 45 -81 55 -94 11 -13 19
-28 19 -33 0 -5 4 -14 10 -21 5 -7 38 -50 72 -97 62 -84 206 -236 283 -297 22
-18 54 -43 70 -56 49 -39 148 -102 183 -116 17 -7 32 -17 32 -22 0 -5 5 -9 11
-9 5 0 34 -11 62 -24 71 -34 131 -55 202 -72 33 -8 69 -19 80 -24 28 -14 191
-30 305 -30 114 0 277 16 305 30 11 5 47 16 80 24 72 17 155 47 212 75 23 12
47 21 53 21 5 0 10 4 10 9 0 5 15 15 33 22 34 14 133 77 182 116 17 13 48 38
70 56 76 60 221 212 283 297 34 47 67 90 72 97 6 7 10 16 10 21 0 5 8 20 19
33 10 13 35 56 55 94 20 39 40 75 45 81 5 6 15 30 22 53 7 22 15 41 19 41 4 0
13 20 19 45 6 25 17 45 23 45 9 0 9 -3 0 -12 -7 -7 -12 -19 -12 -27 0 -21 -47
-122 -129 -276 -13 -24 -93 -148 -123 -190 -52 -73 -219 -252 -284 -305 -49
-39 -150 -116 -166 -125 -87 -51 -169 -95 -178 -95 -5 0 -10 -4 -10 -9 0 -5
-12 -12 -27 -16 -15 -3 -46 -15 -68 -25 -23 -10 -63 -24 -91 -31 -27 -6 -56
-16 -66 -20 -40 -21 -230 -44 -358 -44 -128 0 -318 23 -358 44 -10 4 -39 14
-66 20 -28 7 -68 21 -91 31 -22 10 -53 22 -68 25 -15 4 -27 11 -27 16 0 5 -5
9 -10 9 -9 0 -91 44 -178 95 -15 9 -102 74 -166 125 -36 28 -163 158 -202 206
-22 27 -46 56 -54 65 -51 59 -163 238 -211 339 -55 113 -69 147 -69 161 0 8
-5 20 -12 27 -9 9 -9 12 0 12 6 0 17 -20 23 -45z"/>
<path d="M1750 3991 c-105 -32 -193 -109 -227 -198 -28 -74 -29 -133 -1 -210
25 -71 73 -127 142 -166 53 -29 180 -70 274 -88 34 -6 64 -15 66 -18 3 -4 -19
-19 -48 -34 -61 -32 -129 -94 -152 -138 -22 -44 -29 -128 -14 -189 10 -41 24
-64 69 -109 67 -69 132 -101 286 -141 l110 -28 -50 -24 c-144 -68 -225 -159
-225 -253 0 -50 45 -131 92 -167 37 -28 132 -78 148 -78 6 0 30 -8 53 -19 23
-10 48 -20 56 -23 9 -3 -4 -18 -37 -44 -149 -116 -116 -258 91 -388 31 -20 57
-39 57 -42 0 -2 -15 -19 -32 -36 -91 -89 -118 -151 -98 -225 14 -47 64 -100
118 -124 38 -16 39 -22 12 -49 -54 -54 -45 -127 21 -160 45 -23 47 -22 19 10
-36 42 -19 95 42 126 38 20 71 12 109 -27 31 -31 39 -81 17 -96 -7 -4 -20 -17
-28 -28 -15 -19 -15 -19 15 -1 92 57 107 104 55 168 l-30 36 47 27 c84 50 122
118 108 193 -7 39 -60 114 -106 150 -16 13 -29 27 -29 31 0 5 30 28 67 52 90
58 148 120 163 174 36 128 -53 227 -262 291 -32 9 -58 23 -58 30 0 7 -8 10
-19 7 -10 -2 -58 9 -107 26 -48 17 -95 31 -103 31 -30 0 -159 69 -184 100 -30
35 -32 48 -17 82 19 41 126 96 268 137 49 15 72 26 72 37 0 19 26 14 139 -22
40 -13 79 -24 85 -24 6 0 34 -11 61 -25 28 -13 57 -25 67 -25 9 0 39 -18 67
-40 37 -29 51 -47 51 -65 0 -33 -67 -97 -124 -119 -25 -10 -47 -25 -50 -34
-17 -62 -27 -124 -22 -129 9 -10 112 24 186 60 136 67 196 160 170 266 -15 64
-85 138 -171 182 -101 52 -102 49 33 84 194 50 271 100 322 207 32 67 35 153
7 213 -20 44 -105 128 -139 139 -12 4 -22 11 -22 16 0 4 -11 11 -25 14 -40 10
-22 23 52 36 89 16 216 56 262 82 129 73 190 196 162 332 -30 149 -155 249
-312 250 -42 1 -87 -4 -100 -11 -13 -7 -67 -27 -119 -44 -111 -36 -140 -52
-140 -79 0 -25 29 -40 77 -40 22 0 76 -9 120 -20 l81 -21 41 22 c49 25 81 20
106 -17 37 -58 -17 -140 -125 -187 -76 -34 -392 -115 -512 -132 -34 -5 -48
-12 -51 -26 -6 -24 -46 -25 -137 -3 -36 8 -76 16 -90 18 -59 8 -107 18 -140
31 -19 7 -80 20 -135 30 -55 9 -106 20 -115 25 -8 4 -40 13 -70 20 -82 20
-153 54 -199 98 -35 33 -41 45 -41 79 0 28 6 46 23 61 29 27 47 28 98 1 39
-19 42 -19 96 -4 31 9 87 19 124 22 49 4 73 11 86 25 16 18 16 20 -5 40 -11
12 -65 36 -119 54 -54 18 -116 40 -138 48 -43 16 -124 19 -165 7z m830 -781
c80 -11 156 -25 170 -30 14 -5 74 -16 134 -25 174 -25 231 -60 231 -142 0 -39
-5 -49 -40 -82 -39 -36 -66 -47 -242 -97 -45 -12 -64 -23 -69 -37 -4 -11 -13
-35 -20 -53 l-14 -33 -72 21 c-40 11 -136 38 -213 60 -77 21 -177 48 -222 58
-128 30 -192 70 -214 137 -9 27 -7 40 8 71 27 56 80 80 222 99 67 10 121 20
121 24 0 4 5 20 10 34 9 23 14 26 38 21 15 -4 92 -16 172 -26z m87 -1221 c101
-45 121 -66 109 -114 -4 -14 -24 -38 -46 -53 -33 -23 -40 -34 -45 -72 -11 -80
-16 -100 -27 -100 -5 0 -33 15 -61 33 -29 19 -86 55 -129 80 -93 57 -142 109
-132 140 13 42 70 80 169 113 57 18 58 18 162 -27z m-51 -468 c65 -49 74 -60
74 -86 0 -38 -18 -68 -61 -99 -22 -17 -39 -38 -39 -49 0 -18 -1 -18 -22 -3
-13 8 -38 23 -56 32 -38 19 -80 66 -88 100 -8 32 14 64 72 103 59 38 71 39
120 2z"/>
<path d="M2138 869 c-9 -22 -12 -39 -7 -39 5 0 12 6 15 14 3 8 12 12 20 9 8
-3 14 -1 14 5 0 6 -6 13 -12 15 -7 3 -3 6 10 6 12 1 22 0 22 -2 0 -1 -4 -17
-9 -35 -13 -43 3 -41 16 2 10 32 9 34 -21 49 l-31 14 -17 -38z"/>
<path d="M2967 883 c-11 -10 -8 -73 3 -73 6 0 10 4 10 9 0 5 12 11 26 13 l26
3 -29 28 c-16 15 -32 24 -36 20z"/>
<path d="M2234 866 c-3 -8 -1 -23 5 -35 16 -28 14 -33 -10 -26 -15 5 -19 4
-15 -4 11 -16 46 -13 53 5 3 8 1 20 -6 27 -16 16 -14 30 4 23 8 -3 15 -1 15 3
0 8 -23 21 -36 21 -3 0 -7 -6 -10 -14z"/>
<path d="M2908 873 c-10 -2 -18 -9 -18 -14 0 -5 -7 -9 -15 -9 -12 0 -13 -4 -5
-19 14 -27 13 -38 -6 -45 -11 -4 -20 5 -31 32 -19 42 -30 23 -13 -22 8 -22 15
-27 38 -24 23 3 27 8 30 38 5 51 18 57 33 16 16 -44 31 -48 19 -4 -7 21 -6 36
1 45 12 14 3 16 -33 6z"/>
<path d="M2286 837 c-3 -12 -6 -31 -6 -42 0 -17 2 -18 11 -5 8 13 12 12 26 -7
8 -13 25 -23 38 -23 23 0 55 28 55 49 0 7 4 9 10 6 5 -3 7 -20 3 -37 -8 -41
13 -29 22 13 9 41 31 31 28 -15 -2 -33 0 -36 24 -36 26 0 26 1 7 14 -18 14
-18 15 6 25 19 7 20 10 7 10 -13 1 -17 6 -12 20 5 16 0 18 -50 18 -30 0 -58 3
-62 6 -11 11 -73 8 -73 -4 0 -5 -5 -7 -10 -4 -6 4 -8 10 -5 15 3 5 1 11 -4 14
-5 3 -11 -4 -15 -17z m97 -19 c7 -23 -4 -38 -29 -38 -19 0 -24 5 -24 25 0 20
5 25 24 25 13 0 26 -6 29 -12z"/>
<path d="M2750 831 c0 -6 -16 -7 -37 -4 -32 5 -35 4 -30 -11 4 -10 7 -32 7
-49 0 -23 3 -28 12 -19 6 6 11 26 11 44 0 18 2 25 4 15 3 -13 11 -17 24 -14
15 4 19 0 19 -19 0 -25 15 -30 40 -14 12 8 11 10 -7 10 -25 0 -31 15 -10 24
10 5 10 7 0 12 -18 8 -16 22 5 27 10 3 6 5 -10 6 -16 0 -28 -3 -28 -8z"/>
<path d="M2547 823 c-4 -3 -7 -25 -7 -47 0 -27 3 -36 9 -28 7 11 12 12 29 1
17 -11 25 -11 46 0 21 11 28 12 41 1 11 -9 15 -10 15 0 0 14 -32 70 -40 70 -3
0 -12 -16 -19 -35 -18 -51 -37 -46 -31 9 2 25 -27 45 -43 29z m30 -29 c-3 -3
-12 -4 -19 -1 -8 3 -5 6 6 6 11 1 17 -2 13 -5z"/>
</g>
</svg>
